 http://www.imdb.com/title/tt0238936/
 
http://en.wikipedia.org/wiki/Devdas_(2002_film)


Format                                   : AVI
Format/Info                              : Audio Video Interleave
File size                                : 993 MiB
Duration                                 : 3h 4mn
Overall bit rate                         : 751 Kbps

Video
ID                                       : 0
Format                                   : MPEG-4 Visual
Format profile                           : Advanced Simple@L5
Format settings, BVOP                    : 2
Format settings, QPel                    : Yes
Format settings, GMC                     : 3 warppoints
Format settings, Matrix                  : Default (H.263)
Codec ID                                 : XVID
Codec ID/Hint                            : XviD
Duration                                 : 3h 4mn
Bit rate                                 : 650 Kbps
Width                                    : 688 pixels
Height                                   : 320 pixels
Display aspect ratio                     : 2.2:1
Frame rate                               : 23.976 fps
Stream size                              : 858 MiB (86%)

Audio
ID                                       : 1
Format                                   : MPEG Audio
Format version                           : Version 1
Format profile                           : Layer 3
Mode                                     : Joint stereo
Mode extension                           : MS Stereo
Codec ID                                 : 55
Codec ID/Hint                            : MP3
Duration                                 : 3h 4mn
Bit rate mode                            : Constant
Bit rate                                 : 96.0 Kbps
Channel(s)                               : 2 channels
Sampling rate                            : 32.0 KHz
Compression mode                         : Lossy
Stream size                              : 127 MiB (13%)
 
http://www.shotpix.com/images/98675305796339638324.png
 
http://www.shotpix.com/images/32952162150568380296.png
 
http://www.shotpix.com/images/07898173161897324088.png
 
http://www.shotpix.com/images/13797851183888681561.png
 
http://www.shotpix.com/images/38404607443507673886.png
 
http://www.shotpix.com/images/64431785451494379511.png
 
http://www.shotpix.com/images/66292209716759204100.png
 
http://www.shotpix.com/images/56459029752340609182.png
 
http://www.shotpix.com/images/69118202754102548967.png
 
http://www.shotpix.com/images/13535170216177187839.png
 
http://www.shotpix.com/images/95819270854256832855.png